<?xml version="1.0" standalone="no"?>
<!DOCTYPE svg PUBLIC "-//W3C//DTD SVG 20010904//EN"
 "http://www.w3.org/TR/2001/REC-SVG-20010904/DTD/svg10.dtd">
<svg version="1.0" xmlns="http://www.w3.org/2000/svg"
 width="1280.000000pt" height="974.000000pt" viewBox="0 0 1280.000000 974.000000"
 preserveAspectRatio="xMidYMid meet" style="fill:rgba(127,127,127,0.1)">
<metadata>
Created by potrace 1.15, written by Peter Selinger 2001-2017
</metadata>
<g transform="translate(0.000000,974.000000) scale(0.100000,-0.100000)"
stroke="none">
<path d="M664 9730 c-435 -37 -682 -164 -661 -341 12 -95 55 -158 366 -526
259 -308 401 -555 476 -833 55 -207 65 -382 69 -1265 l3 -560 26 -105 c66
-272 195 -541 366 -765 64 -85 242 -266 331 -338 94 -75 162 -119 370 -237 91
-51 189 -108 219 -127 l53 -34 397 5 c218 3 421 7 451 8 81 4 72 25 -20 52
-95 27 -153 57 -304 159 -159 106 -287 201 -364 272 -194 177 -367 499 -427
790 -26 127 -32 284 -27 675 3 291 1 396 -12 517 -18 173 -48 354 -71 431 -54
182 -182 383 -477 750 -119 148 -138 185 -138 263 0 180 109 257 393 279 168
12 697 -3 862 -25 921 -124 1787 -569 2511 -1290 177 -176 301 -318 388 -442
l50 -73 14 33 c52 124 233 177 378 108 116 -55 204 -169 273 -351 44 -116 51
-112 51 30 0 189 -80 391 -277 693 -114 177 -215 252 -338 251 -69 0 -94 -11
-182 -82 -73 -59 -92 -66 -141 -57 -30 5 -55 26 -137 113 -192 205 -491 498
-615 603 -841 711 -1890 1198 -2951 1368 -290 47 -688 69 -905 51z"/>
<path d="M11435 9730 c-412 -42 -856 -161 -1267 -341 -309 -134 -971 -460
-1198 -590 -278 -158 -554 -358 -795 -575 -205 -185 -541 -532 -607 -627 -84
-120 -107 -147 -125 -147 -8 0 -42 24 -74 54 -33 31 -93 72 -136 93 -69 34
-84 38 -157 38 -70 0 -89 -4 -140 -30 -34 -17 -96 -64 -141 -107 -155 -146
-263 -339 -311 -554 -18 -83 -24 -251 -10 -318 l8 -40 24 74 c63 185 184 343
308 401 144 68 265 44 347 -67 22 -30 46 -54 54 -54 7 0 84 88 169 195 200
250 268 321 451 470 83 67 188 155 235 195 205 175 893 592 1047 636 32 8 132
40 223 69 208 67 288 89 420 114 404 76 1157 95 1441 36 284 -60 350 -193 202
-411 -22 -32 -84 -107 -136 -166 -288 -321 -456 -597 -503 -821 -12 -56 -17
-199 -24 -627 -9 -580 -15 -663 -60 -841 -98 -383 -346 -681 -829 -994 -189
-122 -373 -205 -493 -221 -61 -8 -83 -24 -74 -52 5 -14 20 -25 44 -31 121 -31
512 -41 692 -17 348 47 641 169 925 384 96 73 296 246 346 298 310 330 490
820 501 1369 2 77 -1 293 -6 480 -9 364 -3 483 35 670 31 156 105 365 190 535
137 275 257 435 541 720 155 156 190 196 218 253 31 63 32 72 27 139 -11 129
-66 205 -187 259 -122 54 -324 104 -545 134 -141 19 -500 28 -630 15z"/>
<path d="M3595 7323 c-101 -53 -134 -144 -100 -275 31 -119 183 -494 195 -481
13 13 135 319 169 422 57 172 32 274 -81 332 -46 24 -140 25 -183 2z"/>
<path d="M8982 7319 c-75 -38 -120 -122 -108 -206 8 -63 63 -224 138 -403 52
-126 64 -149 74 -135 37 51 204 512 204 564 0 67 -64 161 -127 188 -49 20
-131 16 -181 -8z"/>
<path d="M2946 6945 c-163 -58 -181 -289 -29 -373 61 -34 230 -67 552 -107
l55 -7 -39 53 c-77 108 -228 292 -293 358 -88 89 -154 109 -246 76z"/>
<path d="M4290 6949 c-50 -20 -98 -61 -171 -146 -91 -106 -269 -336 -264 -341
11 -12 458 60 547 88 100 31 158 106 158 205 0 133 -151 241 -270 194z"/>
<path d="M8340 6947 c-19 -6 -54 -30 -76 -53 -72 -72 -81 -177 -21 -265 31
-46 86 -74 192 -98 101 -22 464 -75 471 -68 5 5 -140 198 -233 309 -143 172
-218 211 -333 175z"/>
<path d="M9665 6941 c-22 -10 -70 -50 -106 -87 -102 -106 -317 -380 -306 -390
9 -9 425 54 507 77 87 23 127 48 161 97 20 30 24 48 24 112 0 66 -4 82 -27
117 -33 50 -114 93 -172 93 -23 0 -59 -9 -81 -19z"/>
<path d="M5706 6750 c-45 -40 -68 -100 -68 -177 0 -54 6 -76 55 -180 31 -65
97 -219 147 -343 163 -401 202 -445 220 -244 27 298 -1 547 -84 744 -90 212
-180 279 -270 200z"/>
<path d="M6884 6706 c-80 -35 -151 -130 -191 -254 -26 -79 -25 -68 -50 -570
-6 -133 7 -232 32 -232 23 0 62 57 90 132 69 184 124 317 206 493 95 204 115
270 104 342 -10 68 -49 103 -112 103 -26 -1 -62 -7 -79 -14z"/>
<path d="M3305 6245 c-162 -24 -319 -55 -366 -73 -142 -55 -172 -252 -53 -350
70 -58 142 -66 223 -26 60 30 154 132 303 329 50 66 96 126 101 133 13 17 -15
15 -208 -13z"/>
<path d="M3912 6188 c169 -225 292 -364 345 -392 170 -87 361 87 287 262 -36
87 -99 121 -284 156 -80 16 -368 56 -397 56 -8 0 11 -33 49 -82z"/>
<path d="M8835 6263 c-421 -54 -542 -87 -592 -162 -85 -125 -26 -284 120 -322
59 -16 125 -1 177 40 57 46 316 357 364 439 7 12 -5 13 -69 5z"/>
<path d="M9250 6264 c0 -21 269 -352 342 -421 87 -82 177 -93 270 -34 84 53
113 172 67 269 -44 91 -137 122 -511 172 -167 22 -168 22 -168 14z"/>
<path d="M3631 6050 c-92 -217 -143 -370 -148 -440 -4 -55 -1 -72 19 -110 67
-123 243 -149 334 -48 63 68 70 149 25 286 -34 102 -158 413 -170 425 -5 5
-31 -46 -60 -113z"/>
<path d="M9011 6019 c-84 -203 -141 -375 -141 -425 0 -58 43 -139 92 -172 52
-34 148 -43 199 -17 55 28 97 75 115 128 20 60 12 103 -45 267 -48 135 -144
370 -152 370 -4 0 -34 -68 -68 -151z"/>
<path d="M5645 5209 c-84 -74 -66 -154 63 -261 103 -86 197 -158 205 -158 8 0
5 25 -24 210 -31 193 -63 240 -163 240 -36 0 -52 -6 -81 -31z"/>
<path d="M6908 5214 c-34 -18 -54 -55 -72 -136 -21 -89 -49 -289 -42 -295 12
-12 269 199 297 243 39 63 14 155 -50 189 -38 19 -98 19 -133 -1z"/>
<path d="M5424 4800 c-42 -17 -74 -68 -74 -118 0 -79 58 -142 129 -142 49 0
378 127 364 141 -11 11 -224 96 -286 114 -56 16 -101 18 -133 5z"/>
<path d="M7115 4771 c-121 -42 -243 -95 -246 -106 -4 -13 279 -124 334 -131
52 -7 109 14 132 50 42 63 24 159 -37 196 -44 27 -87 25 -183 -9z"/>
<path d="M5820 4497 c-204 -153 -253 -224 -213 -304 27 -55 65 -78 128 -78
101 0 128 52 165 311 10 76 18 139 17 140 -1 2 -45 -29 -97 -69z"/>
<path d="M6794 4504 c17 -133 47 -289 65 -329 57 -129 251 -82 251 61 0 65
-34 101 -254 274 l-69 54 7 -60z"/>
<path d="M1945 4170 c-98 -21 -148 -55 -187 -126 -42 -78 -53 -158 -34 -235
16 -60 32 -92 136 -258 41 -66 49 -106 29 -143 -7 -12 -42 -52 -79 -88 -92
-91 -140 -189 -176 -365 -33 -162 -38 -319 -10 -379 10 -22 44 -67 76 -100 31
-34 66 -77 75 -96 27 -52 22 -129 -16 -255 -30 -97 -33 -123 -33 -225 0 -89 5
-133 23 -195 39 -139 118 -262 190 -299 14 -8 58 -19 98 -26 119 -19 178 -71
253 -220 22 -43 38 -93 46 -148 15 -99 48 -157 132 -232 132 -118 366 -179
528 -139 43 11 47 10 74 -16 32 -30 45 -78 55 -200 21 -246 39 -309 98 -345
35 -22 100 -26 143 -10 54 21 105 73 179 184 83 125 189 234 295 304 36 24
139 79 230 123 411 199 517 259 695 394 219 166 545 495 545 551 0 43 -232 75
-397 54 -316 -39 -563 -201 -860 -563 -58 -71 -112 -131 -119 -134 -22 -8 -62
23 -83 65 -26 50 -38 123 -47 272 -6 111 -10 126 -30 147 -28 28 -44 29 -112
3 -137 -52 -342 9 -425 126 -19 27 -39 84 -63 174 -34 131 -51 172 -83 198
-35 28 -90 51 -146 61 -78 15 -95 28 -156 117 -155 230 -178 398 -84 622 24
59 25 65 11 87 -8 13 -29 26 -46 30 -38 8 -98 77 -106 123 -4 20 -4 108 -1
196 9 248 50 365 172 486 l64 63 -33 41 c-49 60 -73 113 -81 179 -13 105 -22
109 -344 167 -185 34 -330 45 -396 30z"/>
<path d="M10057 4168 c-49 -13 -102 -62 -92 -86 12 -32 18 -110 11 -157 -5
-32 -24 -70 -63 -128 -31 -45 -55 -91 -55 -102 0 -12 26 -48 64 -85 59 -59 67
-74 102 -170 60 -169 73 -351 35 -476 -28 -90 -49 -119 -104 -140 -62 -23 -64
-41 -21 -167 56 -162 49 -288 -22 -441 -42 -89 -105 -180 -149 -213 -32 -24
-46 -28 -107 -29 -125 -1 -147 -22 -254 -245 -111 -230 -204 -313 -348 -313
-47 0 -71 6 -110 28 -40 23 -56 26 -91 21 -50 -7 -49 -5 -57 -150 -5 -108 -43
-261 -75 -305 -31 -43 -124 -37 -185 11 -15 12 -51 58 -80 103 -113 176 -295
321 -557 445 -199 95 -412 155 -589 168 -162 11 -161 -25 3 -240 144 -191 284
-327 492 -482 184 -137 390 -257 778 -452 159 -80 274 -200 391 -408 62 -109
123 -149 229 -150 64 0 70 2 96 31 23 25 32 53 50 145 13 63 25 164 27 224 6
134 9 150 34 175 26 26 71 26 144 0 95 -32 146 -35 223 -12 37 11 88 26 113
32 98 25 224 137 235 208 3 20 14 55 24 77 10 22 28 76 40 120 25 89 65 159
119 206 45 40 107 68 150 69 18 0 66 10 107 22 105 31 129 59 198 228 63 156
77 209 77 282 -1 70 -14 127 -52 212 -39 90 -46 143 -24 200 21 54 51 82 111
104 27 10 56 28 66 42 33 44 42 155 30 334 -15 201 -30 274 -79 380 -34 71
-48 90 -95 124 -41 31 -59 53 -72 86 -29 77 -11 137 83 279 41 61 46 75 47
126 0 98 -69 203 -189 283 -33 23 -79 56 -101 74 -54 43 -149 89 -222 108 -68
18 -226 20 -286 4z"/>
<path d="M3795 3880 c-266 -46 -347 -69 -393 -113 -37 -34 -52 -72 -52 -130 0
-99 85 -187 180 -187 50 0 114 35 161 88 88 101 277 358 268 366 -2 2 -76 -9
-164 -24z"/>
<path d="M8680 3903 c0 -2 45 -65 100 -141 174 -239 252 -311 337 -312 126 -1
221 152 167 267 -33 67 -93 97 -266 133 -120 24 -338 59 -338 53z"/>
<path d="M5950 3840 c-41 -41 -52 -116 -55 -384 -5 -391 -37 -559 -155 -816
-70 -154 -85 -178 -198 -323 -91 -118 -176 -207 -279 -294 -110 -94 -96 -123
56 -123 123 0 211 15 270 45 88 44 172 156 251 335 106 239 145 293 259 360
114 66 154 74 284 61 163 -18 214 -34 264 -86 46 -48 62 -92 112 -300 45 -189
67 -241 131 -306 75 -77 142 -102 265 -102 62 1 107 7 143 20 l53 19 -30 41
c-17 23 -83 97 -148 166 -81 85 -133 151 -167 208 -26 46 -79 136 -117 199
-173 292 -200 422 -167 823 14 171 3 288 -37 374 -29 64 -56 81 -92 58 -42
-28 -64 -95 -74 -224 -15 -202 -38 -301 -85 -374 -71 -108 -190 -99 -272 22
-43 63 -60 137 -72 315 -6 83 -15 175 -21 205 -18 87 -74 126 -119 81z"/>
<path d="M3930 3394 c-164 -29 -278 -57 -326 -80 -57 -27 -88 -76 -92 -148 -4
-56 -1 -65 30 -110 18 -27 49 -58 68 -68 39 -20 104 -24 147 -7 52 19 141 119
292 327 l81 112 -32 -1 c-18 0 -94 -12 -168 -25z"/>
<path d="M8551 3373 c119 -174 264 -349 314 -379 97 -57 213 -13 259 98 36 86
1 179 -85 223 -39 21 -167 51 -332 80 -203 34 -195 35 -156 -22z"/>
<path d="M8370 2861 c0 -11 186 -261 244 -328 93 -108 145 -135 231 -119 71
14 144 107 145 185 0 46 -33 112 -69 138 -15 12 -59 31 -97 42 -109 32 -454
95 -454 82z"/>
<path d="M4076 2835 c-352 -64 -411 -97 -411 -234 0 -58 4 -74 28 -108 54 -77
147 -104 225 -64 59 31 135 118 295 339 l67 92 -38 -1 c-20 0 -95 -11 -166
-24z"/>
<path d="M4265 2281 c-294 -52 -364 -75 -410 -136 -101 -132 43 -337 200 -285
49 16 99 63 184 169 74 93 201 268 201 276 0 6 10 8 -175 -24z"/>
<path d="M8210 2303 c0 -18 222 -311 285 -376 74 -77 140 -95 221 -58 79 36
127 136 105 218 -13 48 -60 99 -108 120 -63 26 -503 110 -503 96z"/>
</g>
</svg>
