<?xml version="1.0" standalone="no"?>
<!DOCTYPE svg PUBLIC "-//W3C//DTD SVG 20010904//EN"
 "http://www.w3.org/TR/2001/REC-SVG-20010904/DTD/svg10.dtd">
<svg version="1.0" xmlns="http://www.w3.org/2000/svg"
 width="1280.000000pt" height="1108.000000pt" viewBox="0 0 1280.000000 1108.000000"
 preserveAspectRatio="xMidYMid meet" style="fill:rgba(127,127,127,0.1)">
<metadata>
Created by potrace 1.15, written by Peter Selinger 2001-2017
</metadata>
<g transform="translate(0.000000,1108.000000) scale(0.100000,-0.100000)"
stroke="none">
<path d="M7210 11064 c-52 -8 -138 -26 -190 -40 -94 -26 -284 -94 -277 -100 2
-2 52 6 113 17 137 25 436 36 544 20 187 -29 362 -89 510 -177 474 -281 799
-908 800 -1539 0 -555 -243 -927 -677 -1037 -77 -20 -113 -23 -288 -22 -201 0
-314 13 -440 50 -79 23 -39 -1 59 -35 203 -71 366 -101 553 -101 288 0 503 88
689 282 174 182 286 438 324 741 16 124 8 440 -14 555 -72 387 -239 714 -496
972 -207 206 -430 333 -700 396 -137 32 -370 41 -510 18z"/>
<path d="M5680 11015 c-8 -2 -49 -9 -90 -15 -107 -18 -236 -62 -348 -120 -280
-144 -465 -373 -533 -657 -30 -127 -23 -339 15 -467 140 -466 629 -885 1337
-1146 43 -16 79 -27 79 -25 0 3 -28 19 -62 36 -290 146 -590 359 -788 558
-382 386 -491 780 -309 1121 114 215 352 377 655 445 583 132 1227 -154 1734
-768 52 -63 96 -114 98 -112 1 1 -16 35 -39 76 -318 567 -760 928 -1287 1050
-65 15 -133 21 -267 24 -99 2 -187 2 -195 0z"/>
<path d="M7045 10854 c-156 -20 -193 -27 -203 -33 -8 -5 14 -25 60 -56 108
-73 321 -290 397 -405 80 -121 142 -246 190 -384 26 -76 40 -104 44 -90 20 64
29 169 24 264 -9 162 -59 313 -147 441 -22 32 -37 59 -33 59 4 0 48 -20 98
-44 240 -117 414 -348 476 -631 18 -83 16 -283 -3 -370 -36 -159 -79 -229
-201 -333 -134 -115 -300 -196 -465 -228 -110 -21 -313 -18 -432 6 -327 67
-651 263 -899 545 -65 74 -66 76 94 -175 72 -113 135 -211 140 -219 7 -12 -7
-13 -86 -9 -158 8 -281 70 -424 213 -146 145 -309 411 -349 571 -23 92 -21
220 5 291 71 191 279 333 491 335 42 0 100 -5 130 -12 135 -31 276 -130 356
-249 l39 -59 31 43 c79 112 208 155 352 120 37 -10 -133 101 -217 141 -167 79
-315 113 -521 121 -222 8 -342 -14 -507 -92 -386 -185 -572 -589 -444 -968 75
-219 243 -420 489 -582 142 -93 461 -256 568 -290 l24 -7 -4 186 c-2 102 0
186 3 186 3 0 27 -16 52 -35 179 -137 464 -294 607 -335 225 -64 455 -22 675
125 96 64 231 188 295 270 23 30 47 55 52 55 13 0 65 -115 84 -190 23 -85 23
-234 1 -320 -40 -154 -154 -313 -276 -385 -28 -16 -51 -33 -51 -37 0 -15 145
-38 243 -38 337 0 617 213 743 565 46 130 64 241 64 404 0 275 -68 540 -206
811 -200 389 -511 661 -884 772 -132 39 -374 66 -475 52z"/>
<path d="M5717 10440 c-182 -46 -307 -209 -307 -400 0 -236 214 -510 550 -704
52 -30 97 -52 99 -50 3 3 -16 26 -40 52 -210 219 -369 506 -369 666 0 93 65
181 159 218 42 16 85 22 176 26 119 4 155 -1 365 -53 20 -5 12 6 -37 53 -127
123 -288 193 -458 198 -55 2 -117 -1 -138 -6z"/>
<path d="M7584 10440 c2 -8 18 -46 35 -85 61 -143 89 -387 60 -527 -39 -190
-174 -322 -385 -375 -108 -27 -374 -24 -524 6 -320 63 -684 234 -919 431 -39
33 -73 60 -77 60 -11 0 94 -128 176 -214 305 -319 735 -534 1125 -561 243 -18
470 65 615 222 213 233 213 611 0 923 -43 62 -114 143 -106 120z"/>
<path d="M6600 10313 c-104 -36 -168 -105 -195 -210 -32 -126 18 -256 149
-389 70 -70 180 -154 202 -154 4 0 -26 35 -68 78 -215 221 -256 432 -103 527
44 27 56 30 134 30 78 0 93 -3 161 -36 121 -58 217 -159 299 -313 25 -47 31
-54 31 -33 0 41 -54 191 -91 253 -125 207 -340 310 -519 247z"/>
<path d="M5879 10137 c-44 -13 -95 -43 -117 -70 -10 -11 8 -29 96 -94 137
-103 249 -175 388 -252 108 -60 363 -176 370 -169 2 2 -19 22 -47 43 -114 89
-236 258 -301 417 l-31 76 -79 27 c-95 31 -214 40 -279 22z"/>
<path d="M6627 10063 c-25 -43 -7 -148 41 -237 40 -75 157 -190 225 -221 106
-49 226 -51 314 -6 37 18 119 98 111 107 -2 2 -23 -6 -47 -18 -50 -25 -154
-29 -216 -9 -198 65 -408 246 -417 360 -2 32 -4 36 -11 24z"/>
<path d="M4482 9662 c-225 -394 -337 -780 -349 -1208 -17 -565 140 -1059 480
-1509 87 -115 304 -329 426 -419 462 -343 1017 -482 1541 -386 308 56 642 213
878 413 79 66 105 101 45 60 -61 -43 -213 -123 -303 -161 -508 -214 -1014
-203 -1507 33 -324 155 -563 357 -809 682 -213 282 -367 596 -449 917 -48 190
-66 326 -72 548 -10 350 37 665 151 1023 19 60 34 111 32 112 -1 2 -30 -45
-64 -105z"/>
<path d="M4610 9634 c-42 -95 -100 -284 -124 -406 -156 -774 83 -1520 678
-2113 357 -356 787 -608 1191 -696 136 -30 418 -33 543 -6 169 37 344 111 477
200 81 54 206 160 233 197 l23 30 -98 0 c-243 0 -495 88 -705 246 -103 76
-263 242 -342 353 -182 255 -318 582 -376 903 -11 60 -22 113 -25 117 -2 5
-22 12 -42 16 -83 15 -285 90 -404 150 -212 105 -352 206 -523 373 -182 178
-306 348 -436 593 l-48 92 -22 -49z"/>
<path d="M7680 8952 c-114 -199 -212 -306 -327 -359 -89 -41 -224 -44 -368 -8
-114 28 -274 89 -392 149 -40 20 -73 33 -73 29 0 -15 169 -190 238 -247 196
-160 406 -237 567 -207 178 33 316 175 384 395 24 78 47 291 34 322 -7 18 -15
8 -63 -74z"/>
<path d="M6227 8915 c-40 -408 105 -885 389 -1282 349 -485 884 -800 1279
-753 105 12 146 24 230 68 183 96 305 299 345 577 17 125 9 465 -11 465 -5 0
-9 -30 -9 -67 -1 -212 -73 -483 -169 -630 -185 -284 -512 -293 -913 -24 -201
135 -477 389 -631 581 -233 290 -416 662 -471 960 -9 47 -19 105 -24 130 l-8
45 -7 -70z"/>
<path d="M6449 8694 c193 -392 497 -843 786 -1168 186 -209 379 -316 570 -316
105 0 184 24 263 80 109 76 188 200 233 365 18 65 22 109 23 235 1 85 -2 167
-6 181 l-7 25 -98 -32 c-142 -48 -265 -67 -428 -67 -222 0 -398 41 -611 143
-295 140 -525 335 -762 645 -12 17 4 -25 37 -91z"/>
<path d="M416 8030 c3 -14 26 -67 50 -119 126 -271 346 -504 684 -727 173
-113 319 -193 725 -397 571 -285 843 -439 1026 -578 426 -324 610 -720 628
-1349 l6 -215 22 110 c37 181 46 293 40 494 -6 203 -23 309 -78 474 -106 318
-343 613 -668 831 -234 157 -469 272 -996 486 -497 202 -696 297 -905 435
-125 82 -157 108 -272 222 -98 97 -183 206 -239 305 -17 29 -27 42 -23 28z"/>
<path d="M3680 7916 c0 -3 21 -32 47 -64 128 -157 229 -358 273 -546 30 -126
39 -211 50 -450 11 -241 28 -363 65 -469 23 -68 83 -177 96 -177 4 0 12 14 18
30 28 82 192 325 310 461 l40 46 -48 64 c-78 104 -125 188 -276 494 -78 160
-165 324 -193 365 -64 96 -156 184 -226 216 -52 24 -156 44 -156 30z"/>
<path d="M297 7643 c-10 -17 -91 -275 -123 -393 -69 -249 -126 -540 -156 -795
-16 -144 -17 -571 0 -701 117 -919 649 -1449 1577 -1574 136 -18 499 -24 672
-11 183 15 494 58 679 96 152 31 351 80 385 95 l24 10 -25 -4 c-53 -10 -392
-46 -532 -56 -186 -13 -629 -13 -773 0 -900 82 -1410 408 -1673 1070 -39 99
-86 269 -111 401 -82 433 -65 1120 43 1742 21 121 23 136 13 120z"/>
<path d="M362 7470 c-17 -76 -48 -291 -64 -435 -15 -140 -18 -797 -4 -920 9
-79 10 -80 17 -35 15 96 49 162 118 231 86 86 152 113 261 107 99 -6 153 -35
278 -151 53 -49 112 -100 131 -113 36 -23 121 -57 127 -51 2 2 -35 35 -82 73
-236 189 -456 472 -590 759 -71 153 -156 424 -176 565 -3 18 -7 10 -16 -30z"/>
<path d="M510 7488 c0 -14 66 -202 97 -278 95 -230 251 -492 411 -690 103
-126 300 -329 444 -456 187 -165 326 -271 773 -589 643 -457 830 -617 1083
-923 29 -35 52 -60 52 -56 0 11 -152 228 -214 304 -84 104 -300 324 -426 435
-143 126 -348 286 -640 500 -479 351 -656 494 -859 690 -307 298 -533 622
-677 972 -34 83 -44 103 -44 91z"/>
<path d="M770 7302 c0 -15 194 -304 284 -425 290 -386 655 -753 1026 -1031 58
-44 111 -84 119 -90 8 -6 -13 22 -46 62 -70 83 -131 194 -163 297 -30 96 -38
290 -16 394 9 41 15 75 13 76 -1 1 -69 34 -152 74 -335 161 -752 412 -1007
608 -32 24 -58 40 -58 35z"/>
<path d="M4547 6458 c-481 -704 -763 -1315 -873 -1893 -27 -140 -29 -166 -28
-400 0 -222 2 -262 22 -355 53 -244 153 -466 291 -651 88 -116 266 -294 384
-382 441 -331 1094 -579 1982 -753 105 -20 193 -40 198 -44 4 -3 -31 -100 -78
-215 -47 -114 -84 -209 -83 -211 2 -1 28 28 58 64 78 94 170 165 285 222 162
79 187 83 373 55 279 -42 603 -83 1262 -160 979 -115 1346 -163 1765 -235 921
-157 1572 -370 2005 -655 285 -188 499 -423 624 -685 51 -107 58 -111 21 -14
-43 115 -134 279 -215 386 -397 527 -1153 899 -2405 1183 -252 57 -660 138
-880 175 -106 18 -147 30 -222 66 -198 95 -350 260 -441 479 l-33 80 5 -60
c20 -213 37 -447 34 -451 -4 -3 -189 25 -923 142 -1336 213 -2051 374 -2575
581 -453 178 -775 399 -975 666 -28 38 -28 38 -22 150 6 119 34 247 73 336 13
29 24 55 24 58 0 2 -59 -37 -132 -87 -95 -65 -134 -87 -139 -78 -12 21 -46
166 -61 253 -21 130 -16 442 11 613 62 407 233 899 496 1432 93 186 198 386
262 498 50 85 11 38 -90 -110z"/>
<path d="M4793 6548 c-24 -29 -158 -259 -238 -407 -149 -275 -319 -662 -415
-946 -21 -60 -41 -119 -46 -130 -4 -11 42 28 103 86 195 186 377 322 657 489
204 122 278 185 367 313 42 60 104 183 114 227 5 23 -1 28 -70 64 -139 71
-350 212 -431 288 -24 23 -33 26 -41 16z"/>
<path d="M2125 6386 c-11 -222 -5 -282 38 -369 36 -73 163 -224 153 -182 -3
11 -26 118 -51 238 -50 239 -85 369 -114 425 l-19 36 -7 -148z"/>
<path d="M2318 6379 c49 -51 100 -163 113 -246 20 -133 -18 -273 -104 -385
l-35 -46 106 -79 c356 -263 692 -600 950 -950 53 -72 100 -132 104 -132 3 -1
9 52 13 117 17 269 -40 574 -154 826 -131 288 -370 564 -642 743 -98 64 -299
166 -353 179 l-30 7 32 -34z"/>
<path d="M571 6220 c-47 -22 -135 -89 -128 -97 3 -2 24 6 48 18 25 12 70 24
106 27 83 6 136 -20 268 -134 186 -159 372 -218 510 -160 l30 12 -62 13 c-88
17 -180 67 -318 171 -160 121 -246 164 -339 168 -55 2 -81 -2 -115 -18z"/>
<path d="M5397 6109 c-14 -152 -87 -307 -197 -419 -84 -86 -172 -144 -416
-276 -225 -121 -313 -177 -431 -275 -192 -161 -329 -358 -412 -592 -17 -49
-31 -94 -31 -100 0 -7 20 24 43 67 101 184 304 410 482 538 44 31 181 118 305
193 289 176 336 209 446 319 101 101 152 183 190 303 28 85 48 251 35 284 -6
17 -9 8 -14 -42z"/>
<path d="M5570 6076 c0 -96 -48 -244 -120 -368 -22 -38 -38 -73 -35 -78 3 -4
51 -13 107 -20 176 -22 342 7 608 106 296 110 490 164 586 164 19 0 34 4 34 9
0 12 -147 65 -220 80 -76 16 -281 30 -425 31 -187 0 -379 36 -487 91 -21 11
-40 19 -43 19 -3 0 -5 -15 -5 -34z"/>
<path d="M548 6021 c-76 -25 -137 -91 -153 -167 -3 -17 -1 -80 5 -140 33 -330
166 -605 398 -826 390 -370 956 -503 2060 -485 184 3 336 8 339 11 13 13 -77
128 -181 231 -152 151 -394 310 -671 440 -336 159 -545 190 -980 145 -235 -25
-501 -31 -670 -16 l-100 8 45 40 c130 113 355 237 540 296 174 56 255 67 478
67 111 0 202 1 202 3 0 11 -150 95 -210 118 -73 27 -83 28 -320 33 l-245 6
-65 31 c-36 17 -104 58 -151 92 -139 100 -246 137 -321 113z"/>
<path d="M8620 5969 c-176 -157 -340 -268 -545 -369 -303 -148 -560 -233
-1295 -430 -546 -146 -794 -232 -1065 -369 -674 -342 -1028 -790 -1110 -1406
-8 -61 -14 -135 -14 -165 l1 -55 28 105 c134 495 367 812 798 1083 262 165
554 287 1287 539 451 155 464 160 620 221 548 215 898 420 1166 687 97 96 190
201 177 200 -1 -1 -23 -19 -48 -41z"/>
<path d="M8445 5644 c-352 -282 -840 -550 -1280 -703 -66 -23 -126 -44 -134
-47 -11 -3 -9 -9 7 -27 26 -27 58 -99 67 -148 15 -80 -38 -214 -99 -254 -24
-16 -28 -16 -73 6 -103 50 -173 161 -173 274 0 30 -4 55 -8 55 -15 0 -316
-102 -457 -155 -194 -72 -415 -166 -415 -176 0 -4 8 -10 19 -14 31 -9 120
-111 143 -162 27 -63 35 -190 15 -255 -8 -27 -13 -48 -11 -48 13 0 375 132
499 182 421 170 834 386 1116 584 227 159 448 364 608 564 108 134 281 396
259 389 -2 0 -39 -29 -83 -65z"/>
<path d="M8727 5693 c-3 -10 -13 -56 -22 -103 -121 -614 -317 -1098 -577
-1422 -254 -315 -611 -523 -1098 -637 -233 -55 -424 -81 -945 -131 -732 -69
-1030 -123 -1338 -242 -86 -33 -99 -47 -21 -23 75 23 244 53 394 71 103 12
301 18 840 24 790 10 886 16 1195 76 331 65 605 190 836 382 450 373 694 980
738 1832 10 177 9 213 -2 173z"/>
<path d="M8521 5492 c-145 -294 -422 -586 -776 -817 -268 -175 -500 -287
-1095 -532 -962 -395 -1360 -576 -1699 -773 -178 -103 -198 -120 -76 -64 259
118 507 218 955 384 482 178 532 197 700 263 1018 399 1577 791 1898 1330 58
98 138 265 130 273 -2 2 -19 -27 -37 -64z"/>
<path d="M1390 5491 c-95 -21 -254 -78 -345 -124 -33 -16 -85 -40 -115 -53
-81 -34 -43 -29 120 16 331 92 509 97 798 25 266 -67 505 -161 732 -290 l115
-66 -55 57 c-177 180 -481 356 -729 421 -133 35 -393 42 -521 14z"/>
<path d="M8545 5343 c-157 -286 -441 -609 -719 -818 -238 -178 -606 -385 -880
-494 l-99 -39 59 -7 c173 -19 333 -85 453 -186 l71 -59 58 29 c81 41 257 159
338 226 394 329 652 778 745 1293 11 63 18 116 16 118 -3 3 -21 -26 -42 -63z"/>
<path d="M6902 4818 c-31 -102 -29 -145 8 -196 29 -41 76 -79 85 -70 3 3 8 32
11 65 7 69 -18 169 -59 236 l-24 39 -21 -74z"/>
<path d="M5727 4415 c3 -22 21 -93 39 -157 29 -102 42 -130 99 -213 36 -53 65
-101 65 -108 0 -7 6 -3 12 7 6 11 11 52 11 90 -1 118 -54 226 -177 361 l-55
60 6 -40z"/>
<path d="M5519 4309 c-242 -147 -466 -365 -629 -614 -54 -84 -155 -283 -189
-372 l-19 -53 96 91 c265 249 586 430 905 509 119 30 115 26 69 65 -94 81
-144 195 -144 333 0 50 -1 92 -2 92 -2 0 -41 -23 -87 -51z"/>
<path d="M6785 3890 c-77 -8 -235 -48 -235 -59 0 -8 163 -41 320 -66 121 -18
315 -35 405 -34 l70 0 -65 30 c-239 112 -358 143 -495 129z"/>
<path d="M6360 3794 c-208 -96 -587 -243 -852 -330 -81 -26 -146 -50 -144 -51
2 -2 70 10 152 26 182 37 412 65 684 86 364 27 542 51 755 102 152 35 158 42
37 43 -164 0 -355 46 -504 121 -32 16 -61 29 -65 28 -4 0 -33 -12 -63 -25z"/>
<path d="M2687 3385 c-196 -37 -371 -132 -532 -290 -115 -112 -196 -217 -290
-376 -106 -178 -168 -311 -381 -814 -53 -126 -125 -288 -160 -360 -271 -560
-551 -777 -1014 -786 l-55 -1 45 -10 c25 -6 108 -10 185 -10 164 0 249 18 385
83 193 92 349 239 522 494 105 153 174 277 376 675 332 655 458 854 640 1013
185 162 377 225 652 214 235 -10 519 -82 791 -201 56 -25 104 -44 106 -42 4 4
-159 113 -254 170 -157 94 -407 193 -583 231 -107 23 -335 28 -433 10z"/>
<path d="M2905 3069 c-38 -4 -110 -16 -160 -25 l-90 -18 60 -8 c85 -11 147
-34 216 -80 79 -53 155 -155 180 -240 l8 -28 -42 7 c-23 5 -118 8 -212 7 -154
-1 -179 -4 -260 -28 -187 -55 -332 -141 -460 -270 -138 -139 -230 -294 -395
-666 -139 -314 -204 -433 -315 -576 -87 -111 -209 -223 -333 -305 -58 -38
-101 -69 -97 -69 25 0 327 160 430 228 301 197 458 354 864 859 280 349 418
491 636 653 253 188 539 318 845 383 l65 14 -50 22 c-269 120 -604 173 -890
140z"/>
<path d="M2625 2916 c-106 -28 -195 -81 -305 -185 l-65 -60 116 39 c161 55
362 102 436 102 41 0 78 -8 109 -21 26 -12 49 -20 51 -17 2 2 -11 23 -30 47
-65 86 -196 126 -312 95z"/>
<path d="M3670 2728 c-74 -15 -228 -67 -324 -110 -335 -147 -622 -395 -1023
-883 -315 -383 -400 -481 -513 -595 -176 -178 -309 -279 -475 -362 -194 -97
-353 -136 -600 -147 l-160 -7 80 -9 c125 -15 338 -11 434 9 465 96 770 337
1386 1096 218 269 314 377 446 505 246 239 480 387 759 479 77 26 96 35 70 34
-19 0 -55 -4 -80 -10z"/>
<path d="M3840 2664 c-123 -26 -277 -89 -370 -150 l-36 -24 -12 -142 c-62
-715 -409 -1303 -917 -1556 -86 -43 -225 -95 -225 -85 0 3 31 71 70 150 91
190 176 330 365 608 336 493 625 953 583 929 -33 -19 -278 -247 -403 -375
-253 -260 -474 -525 -672 -810 l-60 -85 -6 -100 c-7 -127 -26 -196 -84 -314
-39 -80 -60 -109 -137 -186 -72 -72 -108 -99 -173 -132 -61 -30 -77 -42 -65
-47 33 -14 359 -18 459 -6 432 54 816 246 1113 557 336 352 532 838 640 1584
11 80 22 157 25 173 5 32 1 32 -95 11z"/>
<path d="M4055 2443 c-14 -97 -108 -450 -165 -621 -350 -1055 -918 -1533
-1860 -1569 -407 -15 -949 80 -1489 261 -74 25 -136 44 -138 42 -5 -5 266
-152 372 -202 1240 -578 2251 -418 2818 446 132 202 255 486 333 769 62 228
126 599 140 820 7 106 1 135 -11 54z"/>
<path d="M3253 2162 c-28 -48 -117 -213 -198 -367 -236 -451 -330 -598 -524
-827 -96 -112 -100 -118 -56 -88 155 107 354 302 468 461 81 114 181 312 236
471 46 134 134 428 129 433 -2 2 -26 -36 -55 -83z"/>
<path d="M1992 1031 c-55 -110 -133 -219 -329 -459 -87 -106 -160 -198 -162
-203 -4 -13 152 87 249 159 184 137 267 273 290 475 4 38 5 79 1 91 -5 18 -13
8 -49 -63z"/>
<path d="M1537 679 c-9 -5 -72 -28 -139 -50 -161 -53 -318 -79 -476 -79 -69 0
-123 -2 -120 -5 5 -5 549 -149 591 -157 15 -2 36 29 102 150 78 143 85 166 42
141z"/>
</g>
</svg>
